<svg width="57" height="57" viewBox="0 0 57 57" fill="none" xmlns="http://www.w3.org/2000/svg">
<rect x="33" y="9" width="20" height="20" rx="10" fill="#FF5C00"/>
<path d="M56 27.95L51.8095 29.6L45.8983 31.1517C45.6497 31.217 45.3937 31.25 45.1366 31.25H40.8676C40.1215 31.25 39.6382 32.0376 39.9761 32.7029L42.5948 37.8586C43.1063 38.8656 44.1401 39.5 45.2696 39.5H50.1607C51.1875 39.5 52.1429 38.9749 52.6933 38.108L55.5326 33.6361C55.8379 33.1553 56 32.5976 56 32.0281V27.95ZM56 27.95L46.5714 9.25L40.2857 15.85L50.7619 29.6M34.5238 26.3V26.3C33.5913 24.6681 33.8405 22.6175 35.1367 21.2564L46.2561 9.58106C47.3251 8.45866 47.363 6.70674 46.3437 5.53912L43.7407 2.55754C42.9972 1.70583 41.696 1.63931 40.8694 2.41075L23.5238 18.6M34.5238 26.3L30.7739 20.7877C29.8429 19.4191 28.295 18.6 26.6398 18.6H23.5238M34.5238 26.3V30.15M9.90476 29.6H6.7619M6.7619 29.6H3.61905V39.5H12.5238M6.7619 29.6V23.55H10.4286M12.5238 39.5V42.8M12.5238 39.5H29.2857M12.5238 42.8H7.6C3.95492 42.8 1 45.7549 1 49.4V49.4C1 53.0451 3.95492 56 7.6 56H32.6381C36.2832 56 39.2381 53.0451 39.2381 49.4V49.4C39.2381 45.7549 36.2832 42.8 32.6381 42.8H29.2857M12.5238 42.8H29.2857M29.2857 42.8V39.5M29.2857 39.5H34.5238V30.15M23.5238 18.6H20.6429M14.0952 23.55H17.7619V18.6H20.6429M14.0952 23.55V26.3M14.0952 23.55H10.4286M10.4286 23.55V26.3M20.6429 18.6V30.15H34.5238" stroke="black" stroke-width="2"/>
</svg>
