<svg width="57" height="57" viewBox="0 0 57 57" fill="none" xmlns="http://www.w3.org/2000/svg">
<path d="M8.33333 48.6667C17.1333 39.8667 18.9841 38.0159 18.8095 38.1905M18.8095 38.1905L16.1905 35.5714L20.9048 31.381M18.8095 38.1905L20.9048 40.2857L25.619 35.7585M20.9048 31.381L18.8095 28.7619L31.381 16.1905L38.1905 14.619M20.9048 31.381L25.619 35.7585M42.381 19.3333L40.2857 26.6667L28.2381 38.1905L25.619 35.7585M42.381 19.3333H47.6191L49.9762 16.9762M42.381 19.3333L38.1905 14.619M38.1905 14.619V9.38095L40.5476 7.28571M23 47.6191H16.1905M8.85714 33.4762V40.2857M1 39.7619L3.09524 46.0476M10.4286 53.9048L17.2381 56M27.1905 29.8095L29.2857 27.7143M32.4286 25.0952L34.5238 23M56 23L49.9762 16.9762M49.9762 16.9762L52.3333 14.619L42.9048 5.19048L40.5476 7.28571M40.5476 7.28571L34.5238 1" stroke="black" stroke-width="2"/>
</svg>
