<svg width="57" height="57" viewBox="0 0 57 57" fill="none" xmlns="http://www.w3.org/2000/svg">
<rect x="36" y="1" width="20" height="20" rx="10" fill="#FF5C00"/>
<path d="M28.5 56H42.25M28.5 56H14.75M28.5 56V12.9565M1 28.5L56 28.8986V42.4493M1 28.5V42.4493M1 28.5V14.75M56 42.4493H48.25C44.9363 42.4493 42.25 45.1356 42.25 48.4493V56M56 42.4493V47.2319M42.25 56H47.9118M47.9118 56H56V47.2319M47.9118 56V52.2319C47.9118 49.4705 50.1503 47.2319 52.9118 47.2319H56M1 47.2319V56H9.89706M1 47.2319H4.89706C7.65849 47.2319 9.89706 49.4705 9.89706 52.2319V56M1 47.2319V42.4493M9.89706 56H14.75M14.75 56V48.4493C14.75 45.1356 12.0637 42.4493 8.75 42.4493H1M1 14.75H8.75C12.0637 14.75 14.75 12.0637 14.75 8.75V1M1 14.75V10.5652M14.75 1H28.5V12.9565M14.75 1H9.89706M9.89706 1H1V10.5652M9.89706 1V5.56522C9.89706 8.32664 7.65848 10.5652 4.89706 10.5652H1M28.5 12.9565V12.9565C19.566 12.9565 12.3235 20.2806 12.3235 29.2146V29.2146C12.3235 38.2393 19.6395 45.6377 28.6641 45.6377H30.3404C38.7047 45.6377 45.4853 38.8571 45.4853 30.4928V30.4928M32.5441 24.1159V8.39131C32.5441 5.62989 34.7827 3.3913 37.5441 3.3913H45.4853L51.9559 8.97101V19.1159C51.9559 21.8774 49.7173 24.1159 46.9559 24.1159H32.5441ZM36.5882 19.3333V12.7681C36.5882 11.1113 37.9314 9.76812 39.5882 9.76812H47.1029V16.3333C47.1029 17.9902 45.7598 19.3333 44.1029 19.3333H36.5882Z" stroke="black" stroke-width="2"/>
</svg>
